<svg xmlns="http://www.w3.org/2000/svg" viewBox="0 0 428.24 428.24"><defs><style>.cls-1,.cls-3,.cls-4,.cls-5,.cls-6,.cls-7{fill:#fff;}.cls-2{fill:none;stroke:#000;stroke-miterlimit:10;stroke-width:18px;}.cls-3,.cls-4{font-size:12px;}.cls-3,.cls-4,.cls-6,.cls-7{font-family:ArialMT, Arial;}.cls-3{letter-spacing:0.12em;}.cls-4{letter-spacing:0.12em;}.cls-5{writing-mode:tb;text-orientation:upright;glyph-orientation-vertical:0deg;font-size:16px;font-family:Arial-BoldMT, Arial;font-weight:700;letter-spacing:0.15em;}.cls-6{font-size:15px;}.cls-7{font-size:16.28px;}</style></defs><title>sbicon</title><g id="形状"><rect class="cls-1" width="428.24" height="428.24" rx="88.29"/><path class="cls-2" d="M7361.43,7172.52l-127.67,218.91c-15.08,25.86-52.44,25.86-67.52,0l-127.67-218.91c-15.2-26.06,3.59-58.78,33.76-58.78h255.34C7357.84,7113.74,7376.63,7146.46,7361.43,7172.52ZM7200,7415.33l-.44-301.59m0,0L7099,7276.21m199.71,3.79-99.19-166.26" transform="translate(-6985.62 -7025.15)"/></g><g id="euio"><text class="cls-3" transform="translate(225.12 115.43) rotate(58.92) scale(1.97 1)">OOOOOOO</text><text class="cls-4" transform="matrix(1.03, -1.68, 0.85, 0.52, 130.66, 233.43)">UUUUUUU</text><text class="cls-5" transform="translate(214.56 107.28)">IIIIIIIIIIIII</text></g><g id="va"><path class="cls-2" d="M7037.17,7135.75" transform="translate(-6985.62 -7025.15)"/><path class="cls-2" d="M7356.61,7180.79" transform="translate(-6985.62 -7025.15)"/><text class="cls-6" transform="translate(71.79 97.53) rotate(-17.77) scale(1.01 1)">E</text><text class="cls-6" transform="translate(84.43 94.14) scale(1.01 1)">E<tspan x="13.76" y="0">E</tspan><tspan x="27.52" y="0">E</tspan><tspan x="41.28" y="0">E</tspan><tspan x="55.05" y="0">E</tspan><tspan x="68.81" y="0">E</tspan><tspan x="82.56" y="0">E</tspan><tspan x="96.34" y="0">E</tspan><tspan x="110.08" y="0">E</tspan><tspan x="123.83" y="0">E</tspan><tspan x="137.59" y="0">E</tspan><tspan x="151.37" y="0">E</tspan><tspan x="165.12" y="0">E</tspan><tspan x="178.88" y="0">E</tspan><tspan x="192.65" y="0">E</tspan><tspan x="206.4" y="0">E</tspan><tspan x="220.15" y="0">E</tspan><tspan x="233.91" y="0">E</tspan></text><text class="cls-6" transform="translate(334.62 94.11) rotate(0.29) scale(1.01 1)">E</text><text class="cls-6" transform="matrix(0.96, 0.31, -0.31, 0.95, 347.75, 94.48)">E</text><text class="cls-7" transform="translate(46.73 107.7) rotate(110.83) scale(1.01 1)">V</text><text class="cls-7" transform="translate(41.89 122.95) rotate(90.12) scale(1.01 1)">A</text><text class="cls-7" transform="translate(42.8 138.98) rotate(69.08) scale(1.01 1)">V</text><text class="cls-7" transform="translate(48.94 152.44) rotate(59.49) scale(1.01 1)">A</text><text class="cls-7" transform="matrix(0.51, 0.87, -0.86, 0.51, 55.99, 164.39)">V</text><text class="cls-7" transform="matrix(0.51, 0.87, -0.86, 0.51, 63.03, 176.34)">A</text><text class="cls-7" transform="matrix(0.51, 0.87, -0.86, 0.51, 70.05, 188.27)">V</text><text class="cls-7" transform="translate(77.1 200.22) rotate(59.49) scale(1.01 1)">A</text><text class="cls-7" transform="matrix(0.51, 0.87, -0.86, 0.51, 84.14, 212.17)">V</text><text class="cls-7" transform="matrix(0.51, 0.87, -0.86, 0.51, 91.18, 224.13)">A</text><text class="cls-7" transform="translate(98.21 236.05) rotate(59.49) scale(1.01 1)">V</text><text class="cls-7" transform="matrix(0.51, 0.87, -0.86, 0.51, 105.25, 247.99)">A</text><text class="cls-7" transform="translate(112.29 259.95) rotate(59.49) scale(1.01 1)">V</text><text class="cls-7" transform="matrix(0.51, 0.87, -0.86, 0.51, 119.33, 271.89)">A</text><text class="cls-7" transform="matrix(0.51, 0.87, -0.86, 0.51, 126.37, 283.84)">V</text><text class="cls-7" transform="matrix(0.51, 0.87, -0.86, 0.51, 133.41, 295.78)">A</text><text class="cls-7" transform="matrix(0.51, 0.87, -0.86, 0.51, 140.45, 307.74)">V</text><text class="cls-7" transform="translate(147.48 319.66) rotate(59.49) scale(1.01 1)">A</text><text class="cls-7" transform="translate(154.52 331.6) rotate(59.49) scale(1.01 1)">V</text><text class="cls-7" transform="matrix(0.51, 0.87, -0.86, 0.51, 161.57, 343.57)">A</text><text class="cls-7" transform="matrix(0.51, 0.87, -0.86, 0.51, 168.6, 355.49)">V</text><text class="cls-7" transform="translate(175.7 368.2) rotate(53.21) scale(1.01 1)">A</text><text class="cls-7" transform="translate(185.97 380.44) rotate(32.65) scale(1.01 1)">V</text><text class="cls-7" transform="matrix(0.99, 0.22, -0.21, 0.98, 199.87, 388.27)">A</text><text class="cls-7" transform="translate(215.59 390.83) rotate(-7.38) scale(1.01 1)">V</text><text class="cls-7" transform="translate(231.25 387.94) rotate(-27.47) scale(1.01 1)">A</text><text class="cls-7" transform="matrix(0.67, -0.75, 0.74, 0.67, 245, 379.76)">V</text><text class="cls-7" transform="translate(254.24 367.95) rotate(-59.49) scale(1.01 1)">A</text><text class="cls-7" transform="translate(261.28 356) rotate(-59.49) scale(1.01 1)">V</text><text class="cls-7" transform="matrix(0.51, -0.87, 0.86, 0.51, 268.31, 344.07)">A</text><text class="cls-7" transform="matrix(0.51, -0.87, 0.86, 0.51, 275.35, 332.12)">V</text><text class="cls-7" transform="translate(282.4 320.17) rotate(-59.49) scale(1.01 1)">A</text><text class="cls-7" transform="translate(289.43 308.23) rotate(-59.49) scale(1.01 1)">V</text><text class="cls-7" transform="translate(296.47 296.29) rotate(-59.49) scale(1.01 1)">A</text><text class="cls-7" transform="translate(303.52 284.33) rotate(-59.49) scale(1.01 1)">V</text><text class="cls-7" transform="matrix(0.51, -0.87, 0.86, 0.51, 310.54, 272.4)">A</text><text class="cls-7" transform="translate(317.59 260.45) rotate(-59.49) scale(1.01 1)">V</text><text class="cls-7" transform="matrix(0.51, -0.87, 0.86, 0.51, 324.63, 248.5)">A</text><text class="cls-7" transform="matrix(0.51, -0.87, 0.86, 0.51, 331.66, 236.56)">V</text><text class="cls-7" transform="translate(338.71 224.61) rotate(-59.49) scale(1.01 1)">A</text><text class="cls-7" transform="translate(345.73 212.69) rotate(-59.49) scale(1.01 1)">V</text><text class="cls-7" transform="matrix(0.51, -0.87, 0.86, 0.51, 352.78, 200.72)">A</text><text class="cls-7" transform="matrix(0.51, -0.87, 0.86, 0.51, 359.82, 188.79)">V</text><text class="cls-7" transform="matrix(0.51, -0.87, 0.86, 0.51, 366.85, 176.85)">A</text><text class="cls-7" transform="matrix(0.51, -0.87, 0.86, 0.51, 373.89, 164.9)">V</text><text class="cls-7" transform="matrix(0.44, -0.91, 0.9, 0.44, 381.41, 152.7)">A</text><text class="cls-7" transform="translate(387.62 137.93) rotate(-84.8) scale(1.01 1)">V</text><text class="cls-7" transform="translate(388.14 121.92) rotate(-105.69) scale(1.01 1)">A</text></g></svg>